<svg xmlns="http://www.w3.org/2000/svg" width="32" height="32" viewBox="0 0 32 32"><g fill="none" fill-rule="evenodd"><path fill="#224888" d="M16,0 C24.836556,-1.623249e-15 32,7.163444 32,16 C32,24.836556 24.836556,32 16,32 C7.163444,32 1.082166e-15,24.836556 0,16 C-1.082166e-15,7.163444 7.163444,1.623249e-15 16,0 Z"/><path fill="#FFF" d="M21.7114092,7.38461538 C21.6913564,7.38461538 21.6724177,7.38794634 21.654036,7.39294276 C21.6406676,7.39793919 21.6272991,7.40349078 21.6133736,7.4084872 C21.217889,7.55838001 20.644715,7.7204863 20.0097117,7.7204863 C20.0097117,7.7204863 15.0121242,7.7204863 13.9315046,7.7204863 C13.5427043,7.7204863 13.2006937,7.90924021 12.9973813,8.19625717 C12.9957102,8.19958812 10.0769231,13.9971088 10.0769231,13.9971088 C10.0769231,13.9971088 11.5886766,14.1725389 11.6298961,14.1786456 C12.9762145,14.3851646 14.5737491,14.7771065 15.6822198,15.4444071 C17.2752983,16.4037211 18.2706939,17.7977241 18.1698732,19.2944316 C17.974359,22.195135 15.2421737,23.5003127 13.0937458,23.8139773 C11.5853344,24.0227169 10.5838117,23.8139773 10.5838117,23.8139773 C10.5838117,23.8139773 11.8148269,24.5562242 13.588937,24.6106298 C16.6180142,24.7038964 18.9736537,23.4159286 20.2197084,21.5539268 C22.1871046,18.6160278 21.0875463,13.9399274 15.9300939,12.5475898 C14.9408256,12.2805586 13.5672132,12.0279614 13.5672132,12.0279614 L14.3019232,10.5867699 C14.4651302,10.1792835 14.8750972,9.89060104 15.3558059,9.89060104 C15.3780867,9.89060104 15.4003675,9.89171136 15.4226483,9.89282168 L17.8746523,9.89282168 C17.8752093,9.89282168 17.8763234,9.89282168 17.8768804,9.89282168 C17.8774374,9.89282168 17.8785515,9.89282168 17.8802225,9.89282168 L20.0587295,9.89282168 C20.4854071,9.89282168 20.8563828,9.66465151 21.0485548,9.32822544 L21.0691646,9.28825402 L21.8801863,7.70993829 C21.8957829,7.69050774 21.9069233,7.6683014 21.9141646,7.64387442 C21.9197348,7.62610935 21.9230769,7.60778912 21.9230769,7.58835857 C21.9230769,7.47621654 21.8283834,7.38461538 21.7114092,7.38461538 Z"/></g></svg>