<?xml version="1.0" encoding="UTF-8"?>
<svg width="192px" height="86px" viewBox="0 0 192 86" version="1.1" xmlns="http://www.w3.org/2000/svg" xmlns:xlink="http://www.w3.org/1999/xlink">
    <!-- Generator: Sketch 59 (86127) - https://sketch.com -->
    <title>logo@2x</title>
    <desc>Created with Sketch.</desc>
    <defs>
        <polygon id="path-1" points="0 55 192 55 192 0 0 0"></polygon>
    </defs>
    <g id="12月网页更改" stroke="none" stroke-width="1" fill="none" fill-rule="evenodd">
        <g id="1-1-首页--已登录" transform="translate(-361.000000, -56.000000)">
            <g id="logo" transform="translate(360.000000, 56.000000)">
                <g transform="translate(1.000000, 0.000000)">
                    <path d="M159.211309,32.5531674 L159.211309,32.5556793 C161.030056,32.5556793 162.849306,32.5559305 164.668305,32.5556793 C168.37667,32.5546745 172.085286,32.5649733 175.793399,32.5416126 C176.429219,32.5375936 177.068809,32.4152638 177.697592,32.299465 C178.124572,32.2205912 178.406293,31.9098686 178.504054,31.4893758 C178.585228,31.1407235 178.636747,30.7777533 178.642024,30.4205604 C178.659616,29.3155736 178.654087,28.2105868 178.64504,27.1056 C178.642275,26.7652369 178.619406,26.4226132 178.571405,26.0857668 C178.464849,25.3394799 178.163274,24.9853014 177.422405,24.8479002 C176.852932,24.7418978 176.26662,24.6811098 175.687345,24.6806074 C165.084981,24.6710621 154.482616,24.6690526 143.879749,24.6833705 C143.122043,24.6843752 142.360566,24.7979133 141.608137,24.9084371 C141.12034,24.9802776 140.813237,25.3143609 140.690596,25.7974001 C140.643601,25.9815227 140.580773,26.169162 140.578259,26.3560477 C140.558908,27.8214928 140.536542,29.2871891 140.552374,30.752383 C140.556647,31.1459985 140.666973,31.5443865 140.769257,31.9297127 C140.849174,32.2313924 141.068067,32.4293305 141.398543,32.4531936 C141.918759,32.4908722 142.439981,32.5478924 142.9607,32.548646 C148.377486,32.5556793 153.794272,32.5531674 159.211309,32.5531674 L159.211309,32.5531674 Z M189.010417,54.1934762 C184.768767,54.1904619 180.526867,54.2042774 176.285468,54.1753905 C174.808757,54.1655941 173.343355,53.9844858 171.892529,53.6715024 C169.473899,53.1495287 167.845898,51.7051836 166.808229,49.5052576 C166.158336,48.1267244 165.849975,46.6685638 165.80097,45.1654401 C165.73211,43.057701 165.740655,40.9477012 165.716529,38.8384549 C165.715272,38.7201442 165.716529,38.6020847 165.716529,38.4440859 L165.36444,38.4440859 C160.861426,38.4440859 156.358412,38.4460954 151.855146,38.4380574 C151.607352,38.437555 151.489989,38.5116562 151.395747,38.742249 C150.527966,40.8655619 149.541565,42.9305986 148.152562,44.7703175 C146.208912,47.345522 143.743538,49.3123433 140.937887,50.8800229 C138.319213,52.3424538 135.491949,53.2289049 132.602863,53.9520822 C131.961765,54.1125929 131.318154,54.2620512 130.63182,54.4270833 L130.63182,54.0977726 C130.63182,52.3399418 130.638354,50.5816087 130.625,48.8237779 C130.623024,48.5725874 130.707717,48.4814053 130.933898,48.4083089 C133.345993,47.6331351 135.694758,46.7117685 137.908066,45.4595841 C140.830828,43.8067509 143.042628,41.4656559 144.699782,38.5724442 C144.713604,38.5485812 144.718379,38.5191919 144.738232,38.4601621 C144.620116,38.4543847 144.51557,38.4460954 144.410772,38.4445883 C143.144661,38.4287633 141.875785,38.4611669 140.613443,38.3817907 C139.788636,38.3297943 138.947745,38.20018 138.159378,37.9582836 C136.163205,37.3451277 134.889554,36.147954 134.731981,33.7834982 C134.663121,32.7523614 134.594764,31.7187127 134.586974,30.6858176 C134.57089,28.5562249 134.581947,26.4261298 134.610597,24.2965372 C134.622409,23.4382194 134.811647,22.6020064 135.164238,21.8140219 C135.944312,20.0712625 137.383829,19.2322864 139.194283,18.9368864 C139.727065,18.8499745 140.273166,18.807021 140.813739,18.8067698 C153.29793,18.8007412 165.782121,18.7974757 178.266061,18.8165662 C179.071768,18.817571 179.890041,18.9431662 180.680167,19.1139757 C182.591146,19.5269328 183.763518,20.7313911 184.248299,22.6203433 C184.489308,23.5592932 184.615969,24.5128121 184.61798,25.4801466 C184.623006,27.8810249 184.62753,30.2821545 184.606168,32.683284 C184.601393,33.221334 184.526251,33.7659149 184.421705,34.2954244 C183.961049,36.6325004 182.091286,38.2589586 179.709348,38.3302966 C177.218591,38.4043978 174.725573,38.4091705 172.23356,38.4435835 C172.105642,38.4455931 171.977473,38.4440859 171.833973,38.4440859 C171.82769,38.5518466 171.819397,38.6299669 171.819397,38.7080871 C171.819397,40.2451215 171.811104,41.7821559 171.824423,43.3191903 C171.833219,44.2669318 171.945556,45.2031187 172.297896,46.0945936 C172.807808,47.3839542 173.738167,48.1011029 175.144008,48.119691 C176.641327,48.1392839 178.138897,48.1299898 179.636718,48.1304922 C182.63211,48.1319994 185.627501,48.1304922 188.622642,48.1325017 C188.752068,48.1325017 188.881242,48.1536017 189.010417,48.1649053 L189.010417,54.1934762 Z" id="Fill-1" fill="#E03024"></path>
                    <mask id="mask-2" fill="white">
                        <use xlink:href="#path-1"></use>
                    </mask>
                    <g id="Clip-4"></g>
                    <path d="M4.85529812,35.6685743 L18.8680793,35.6685743 L18.8680793,35.2934345 L4.85529812,35.2934345 L4.85529812,35.6685743 Z M4.86525515,25.9630342 L18.8718132,25.9630342 L18.8718132,25.5795411 L4.86525515,25.5795411 L4.86525515,25.9630342 Z M4.85753845,15.0427196 L18.8748003,15.0427196 L18.8748003,14.6078409 L4.85753845,14.6078409 L4.85753845,15.0427196 Z M4.86600193,28.5821783 L18.8765428,28.5821783 L18.8765428,28.1217335 L4.86600193,28.1217335 L4.86600193,28.5821783 Z M18.8713154,18.4321406 L18.5098751,18.4321406 L5.22843793,18.4321406 C4.79754733,18.4321406 4.7943113,18.4369501 4.87770145,18.9259988 L18.8713154,18.9259988 L18.8713154,18.4321406 Z M4.86625086,6.5957457 L18.8772896,6.5957457 L18.8772896,6.16339834 L4.86625086,6.16339834 L4.86625086,6.5957457 Z M4.85231101,5.30250058 L18.8708175,5.30250058 L18.8708175,4.28213044 L4.85231101,4.28213044 L4.85231101,5.30250058 Z M4.86575301,30.5338166 L18.8715643,30.5338166 L18.8715643,29.4529482 L4.86575301,29.4529482 L4.86575301,30.5338166 Z M4.86525515,20.8644742 L18.8767917,20.8644742 L18.8767917,19.7048821 L4.86525515,19.7048821 L4.86525515,20.8644742 Z M14.3543093,41.7135903 C14.3528139,40.1770865 13.1310859,38.9306706 11.6233422,38.9273725 C10.1076329,38.923836 8.86648879,40.1905024 8.8751556,41.7320688 C8.88391359,43.259713 10.1272981,44.513976 11.6263294,44.5071693 C13.1318327,44.5000538 14.3560499,43.2462971 14.3543093,41.7135903 L14.3543093,41.7135903 Z M4.8560449,24.0088647 L18.8762939,24.0088647 L18.8762939,22.3369359 L4.8560449,22.3369359 L4.8560449,24.0088647 Z M4.85206209,34.367229 L18.8643454,34.367229 L18.8643454,32.6436616 L4.85206209,32.6436616 L4.85206209,34.367229 Z M4.85554705,17.5925058 L18.8710664,17.5925058 L18.8710664,15.8714697 L4.85554705,15.8714697 L4.85554705,17.5925058 Z M4.86077449,9.87530798 L18.8733068,9.87530798 L18.8733068,8.15022177 L4.86077449,8.15022177 L4.86077449,9.87530798 Z M4.86699764,13.667207 L18.8710664,13.667207 L18.8710664,11.3434665 L4.86699764,11.3434665 L4.86699764,13.667207 Z M0,47.4976284 C0.842613901,47.0275646 1.71061824,46.5982548 2.52136963,46.0768054 C3.50786266,45.4424597 4.36615889,44.6395289 5.14778596,43.716361 C4.75423424,43.2473096 4.37586699,42.7805365 3.98131957,42.3286981 C3.09613935,41.3141499 2.20573169,40.3046644 1.31159015,39.2984696 C0.63899258,38.5421148 0.391809241,37.6280596 0.38409254,36.6426215 C0.368161288,34.6482042 0.379114024,32.6537868 0.379114024,30.6591163 C0.379114024,22.2458088 0.374135508,13.8322482 0.388573205,5.41894074 C0.389817834,4.68511463 0.471216578,3.94166955 0.602898336,3.21948745 C0.923514793,1.46402555 1.94759562,0.458083856 3.69754413,0.195587245 C4.53069885,0.0707937743 5.38078053,0.0148518736 6.22389228,0.0108017812 C9.93736767,-0.00717050365 13.651092,0.000929681066 17.3648163,0.00902986579 C18.3719702,0.011054912 19.3706605,0.0993975516 20.3447073,0.396573078 C22.0239609,0.908909762 22.9504628,2.07204566 23.1966504,3.80877589 C23.2758088,4.36743551 23.3109074,4.93748601 23.3114052,5.50247389 C23.3181262,15.8091996 23.3109074,26.1156721 23.3228558,36.4223977 C23.3243493,37.6910892 22.9069007,38.7236096 22.03342,39.6351335 C20.818911,40.9038249 19.6721097,42.2398492 18.4971798,43.5475227 C18.4576006,43.5913144 18.4274806,43.6437124 18.359026,43.739649 C18.9385253,44.2810957 19.5008487,44.8382365 20.0967772,45.355889 C21.1452527,46.2661472 22.2746292,47.0536371 23.5620735,47.5867305 C23.6449658,47.6211563 23.7422958,47.7537968 23.7427937,47.8411269 C23.7525018,49.9874227 23.75,52.1339717 23.7487679,54.2802675 C23.7487679,54.3177308 23.734828,54.3549411 23.7203903,54.4270833 C20.3148362,52.6602305 17.0367321,50.7493463 14.3406165,47.9841458 C12.5879298,48.9733808 10.862376,48.9655338 9.10147476,48.0122433 C9.03550942,48.0722353 8.95535531,48.1428588 8.87769045,48.2160136 C6.22712832,50.7101111 3.224834,52.6733933 0,54.3015305 L0,47.4976284 Z" id="Fill-3" fill="#E03024" mask="url(#mask-2)"></path>
                    <path d="M82.5859818,0 L82.5859818,9.48190386 L89.0625,9.48190386 L89.0625,15.604268 L82.6044819,15.604268 L82.6044819,32.3183908 C83.6577548,32.0105071 84.7058476,31.656644 85.776634,31.4049008 C86.8486536,31.1529036 87.9436134,31.0025182 89.06102,30.8015809 L89.06102,36.9892306 C88.49837,37.0969391 87.9335,37.182293 87.3794834,37.3146424 C85.7470338,37.7048316 84.2211448,38.3863927 82.7357094,39.1693115 C82.6624489,39.2076699 82.621502,39.3311283 82.5884485,39.423849 C82.5662484,39.4863403 82.5840085,39.5643273 82.5840085,39.6352015 L82.5840085,54.0528979 L82.5840085,54.4270833 L76.8144411,54.4270833 L76.8144411,42.6261445 C73.2005065,44.6845452 69.4600311,46.0108331 65.3352467,46.0629091 C65.3308067,45.9727287 65.32094,45.8566372 65.3206933,45.7405457 C65.3199533,43.9214407 65.3276,42.1030978 65.3125,40.2842468 C65.3100866,39.9870323 65.3927204,39.8882149 65.6756488,39.8437597 C69.3744372,39.2612702 72.7335637,37.7523351 75.9735495,35.8872508 C76.6040332,35.5242427 76.8304745,35.165299 76.8257878,34.4103235 C76.7887876,28.29431 76.8050677,22.1775345 76.8050677,16.061267 L76.8050677,15.6377999 C76.7027004,15.6291629 76.6188333,15.6162074 76.5352128,15.6162074 C75.4104062,15.6146832 74.2855995,15.621542 73.1610396,15.6093486 C72.9580317,15.6070624 72.8684912,15.6896219 72.780184,15.8588056 C71.7984449,17.7358293 70.4434969,19.2180912 68.5204722,20.0914445 C67.5996601,20.509577 66.1938985,20.8532789 65.4620342,20.8332106 C65.4563608,20.7402358 65.4447674,20.6439586 65.4447674,20.5476815 C65.4437807,18.7494069 65.4464941,16.9508782 65.4408207,15.1526036 C65.4400807,14.9463317 65.4788076,14.8320185 65.6966155,14.7578419 C66.6958681,14.4169343 67.3381919,13.6718659 67.7814545,12.7215417 C68.3164777,11.5735825 68.4664519,10.3389993 68.5567324,9.0873961 C68.7501202,6.40408285 68.9585548,3.72153168 69.1630427,1.01510175 L74.9027632,1.01510175 C74.7374955,3.81984109 74.5732146,6.6131491 74.4064669,9.44202124 L76.7843476,9.44202124 C76.790021,9.37622761 76.804081,9.2890955 76.804081,9.20247145 C76.8050677,6.20517778 76.8050677,3.2078841 76.804081,0.210590428 C76.804081,0.140224265 76.7910076,0.0701121327 76.7843476,0 L82.5859818,0 Z" id="Fill-5" fill="#E03024" mask="url(#mask-2)"></path>
                    <path d="M190,17.7675722 C189.921435,17.7824739 189.843125,17.8107618 189.76456,17.8110143 C187.863242,17.8132875 185.96167,17.8125 184.060098,17.8115195 C184.020688,17.8115195 183.981279,17.8031847 183.920512,17.7961127 C183.894323,17.2409629 183.870678,16.6906119 183.841693,16.1402609 C183.834065,15.9892238 183.803809,15.8394495 183.798469,15.6884124 C183.774061,14.9635353 183.339794,14.569778 182.680511,14.4487967 C181.974699,14.3194807 181.25287,14.2068343 180.537651,14.2060766 C167.155708,14.1931955 153.77402,14.1942057 140.392331,14.2073394 C139.583038,14.2083497 138.772474,14.3215012 137.965469,14.4068701 C137.339239,14.4730435 136.986079,14.8758933 136.853612,15.4565528 C136.760046,15.8672323 136.709704,16.2907929 136.675379,16.7113227 C136.646903,17.0616379 136.669532,17.4162468 136.669532,17.7910613 L130.681066,17.7910613 C130.669116,17.7445883 130.651319,17.7069553 130.651319,17.6693223 C130.65437,16.224872 130.572245,14.7738549 130.683609,13.3377394 C130.857011,11.1042591 132.050229,9.53958524 134.180376,8.74626152 C134.852118,8.49596422 135.561997,8.3474528 136.286878,8.14287075 L136.286878,0.88727993 L142.218136,0.88727993 L142.218136,8.16812779 L157.282228,8.16812779 L157.282228,0 L163.200519,0 L163.200519,8.17343177 L178.751256,8.17343177 L178.751256,0.886522219 L184.803793,0.886522219 L184.803793,1.23203857 C184.803793,3.51477014 184.807353,5.79775428 184.798708,8.08048585 C184.797691,8.31689178 184.86634,8.39897717 185.102543,8.4568158 C185.643088,8.58891014 186.19177,8.72479303 186.700534,8.94326645 C188.558121,9.74113645 189.684724,11.1181504 189.952454,13.1417448 C189.959065,13.1897331 189.983728,13.2351958 190,13.2819213 L190,17.7675722 Z" id="Fill-6" fill="#E03024" mask="url(#mask-2)"></path>
                    <path d="M26.7309929,16.0072723 C26.7309929,14.9984887 26.7330169,14.0693658 26.7307399,13.140243 C26.7261857,11.4408131 26.7168243,9.74163605 26.7191014,8.04220615 C26.7191014,7.91525469 26.7575589,7.75062241 26.8413052,7.66716827 C27.9985731,6.51777706 28.7317962,5.11701184 29.1831661,3.57816794 C29.4976576,2.50565571 29.6901982,1.39748579 29.9325818,0.303983567 C29.9677502,0.144662013 29.9611719,-0.00125629887 30.2065917,0 C32.0889863,0.0101238121 33.9713809,0.00557176772 35.8537755,0.0068362245 C35.9122209,0.0068362245 35.9709192,0.0222625972 36.0539065,0.0338955995 C35.6862829,1.42226914 35.3229605,2.79597498 34.9452165,4.22430536 L35.3477555,4.22430536 C40.4889193,4.22430536 45.6300831,4.2230409 50.770994,4.22481114 C52.4578118,4.22556981 54.0692327,4.53687907 55.5354258,5.41694099 C57.7029628,6.71781412 58.9002062,8.6579966 59.24683,11.133803 C59.3389256,11.7918263 59.3685278,12.4635057 59.3690338,13.1291158 C59.3766241,23.4974084 59.3758651,33.865954 59.372829,44.2342467 C59.372323,46.0226943 59.2002761,47.7883818 58.5821726,49.4842712 C57.5612772,52.2847901 55.5468113,53.8673842 52.613919,54.2904714 C52.0056829,54.3779718 51.3853023,54.4151468 50.7702349,54.4184344 C48.2806162,54.4328492 45.7909975,54.4250096 43.3013788,54.4245038 C43.2214276,54.4245038 43.1412235,54.4174229 43.0359713,54.4126179 L43.0359713,48.5758855 L43.4084021,48.5758855 C45.4021211,48.5758855 47.3960932,48.5925763 49.3893062,48.5660227 C49.990711,48.5579302 50.5969231,48.4630959 51.1889665,48.3475246 C51.9264908,48.2033765 52.4507275,47.7410911 52.815062,47.0901487 C53.1981192,46.4050661 53.368901,45.6620713 53.4235511,44.8882237 C53.4435389,44.605997 53.4432859,44.322 53.4432859,44.0390145 C53.4440449,34.1357891 53.445816,24.2328165 53.4387317,14.329591 C53.4384787,13.8270959 53.4086235,13.3149909 53.3107086,12.823623 C52.9860968,11.191968 51.8941055,10.2706848 50.2229742,10.1695282 C50.0309396,10.1578952 49.838399,10.1530903 49.6463644,10.1530903 C44.1006375,10.1523316 38.5546576,10.1541019 33.0086778,10.146768 C32.7584508,10.1465151 32.6185363,10.2276932 32.4649592,10.4257072 C31.5910625,11.5505679 30.7338646,12.6921195 29.7959564,13.7623557 C28.9711437,14.7036173 27.9009112,15.3550655 26.7309929,16.0072723" id="Fill-7" fill="#E03024" mask="url(#mask-2)"></path>
                    <path d="M111.290338,53.4375 L111.290338,47.5341967 C111.504997,47.5341967 111.683881,47.5379409 111.862764,47.5336975 C112.828734,47.5097348 113.803773,47.5564121 114.759161,47.4428391 C116.545978,47.2299208 117.525049,46.2202437 117.771706,44.4519985 C117.84452,43.929812 117.887855,43.3983899 117.888107,42.8714608 C117.894909,33.0764703 117.893146,23.2819791 117.893146,13.4872383 C117.893146,12.7121957 117.807987,11.9491345 117.472392,11.2394901 C116.879558,9.98519412 115.893432,9.29402089 114.475971,9.29227362 C109.306245,9.28578373 104.136015,9.29077595 98.9662886,9.28503489 C98.779595,9.28478528 98.6745325,9.35517562 98.5719896,9.49495786 C97.7927136,10.5583013 96.9086272,11.524546 95.852964,12.3282938 C94.4412979,13.403369 92.809681,13.9789722 91.1009679,14.377102 C90.7709157,14.4539822 90.4375882,14.5171338 90.0752866,14.592766 C90.0679801,14.4559791 90.0584061,14.35913 90.0581541,14.2622809 C90.0573983,12.4750652 90.0624372,10.6878495 90.0520833,8.90063375 C90.0505957,8.66999306 90.1201334,8.57489122 90.3441154,8.51124038 C92.0928882,8.01351579 93.3790841,6.95017236 94.2132848,5.35116345 C95.0457218,3.75564909 95.6012677,2.06228717 96.0081641,0.31750536 C96.0326031,0.212668685 96.0610733,0.108830454 96.0887876,0 L102.449473,0 C102.125468,1.1457151 101.808769,2.26497141 101.479221,3.43040579 C101.632405,3.43789412 101.756616,3.44937623 101.880574,3.44937623 C106.052837,3.45037468 110.2251,3.45162274 114.397363,3.44937623 C115.812809,3.4486274 117.225231,3.51028135 118.571894,3.98304484 C121.211052,4.90935175 122.774643,6.81388468 123.444321,9.45452085 C123.623961,10.1621684 123.686696,10.915994 123.687703,11.6488523 C123.701561,22.7116177 123.700049,33.7741335 123.690727,44.8371484 C123.689467,46.4007126 123.425929,47.9235901 122.667817,49.3174187 C121.454938,51.5479437 119.550209,52.8783711 117.028963,53.1629278 C115.13406,53.3770941 113.211695,53.3546291 111.290338,53.4375" id="Fill-8" fill="#E03024" mask="url(#mask-2)"></path>
                    <path d="M41.7412735,25.3471714 L46.9994986,25.3471714 C47.0994044,25.9488217 47.2035351,26.5576223 47.3012042,27.1676998 C47.6357146,29.2510033 47.9896097,31.3317532 48.294546,33.4199087 C48.5510205,35.1771055 48.6230918,36.9383882 48.0805687,38.6657068 C47.8342835,39.4507123 47.453051,40.1598731 46.9413445,40.7988074 C46.0106302,41.9609935 44.8172283,42.547577 43.3556714,42.5491092 C39.8368506,42.5520833 36.3182783,42.554472 32.799706,42.547577 C31.3520663,42.5450233 30.0028412,42.1890384 28.8407531,41.2592384 C27.1604969,39.9159954 26.5498787,38.1233022 26.7578915,35.9845835 C26.9293716,34.2207471 27.4982381,32.5667196 28.0499566,30.9065631 C29.5753836,26.3139999 31.1032959,21.7219475 32.6205218,17.1265752 C32.6980606,16.8918907 32.7942386,16.8214088 33.0335651,16.8229167 C34.8226739,16.8349434 36.6117826,16.8295806 38.4008914,16.8295806 L38.7286917,16.8295806 C38.431211,17.7136695 38.1434227,18.5694123 37.8551374,19.4246444 C36.2869646,24.0777301 34.7150639,28.7292837 33.1560864,33.3856892 C32.9793873,33.9135377 32.8461796,34.4615605 32.7450312,35.0106047 C32.5417404,36.1163541 32.9985235,36.7060021 34.0920196,36.80483 C34.2008722,36.8145341 34.3104703,36.8191307 34.4195714,36.8191307 C36.5963743,36.8196415 38.7734256,36.8306223 40.9497314,36.8081498 C41.3791771,36.8035532 41.8247768,36.7248994 42.2321041,36.5852124 C42.9995396,36.3221819 43.3758016,35.692441 43.2786296,34.8052877 C43.1575995,33.7018365 42.9910898,32.6019605 42.8066866,31.5071919 C42.4761526,29.5472318 42.1170385,27.5926345 41.7713446,25.6354834 C41.7556877,25.547381 41.7522084,25.4569802 41.7412735,25.3471714" id="Fill-9" fill="#E03024" mask="url(#mask-2)"></path>
                    <path d="M108.671869,14.84375 L114.791667,14.84375 C114.723454,15.4305762 114.658588,15.999033 114.590891,16.5672416 C114.333744,18.7258881 114.075824,20.8842864 113.818419,23.0429329 C113.557411,25.2308711 113.29666,27.4190575 113.036939,29.6074921 C112.780564,31.7658904 112.533198,33.9257781 112.268071,36.0834317 C111.970253,38.5052067 111.781318,40.9423722 111.102027,43.3080463 C110.436121,45.626804 109.450776,47.7906634 107.830671,49.6494427 C106.296796,51.4099213 104.378873,52.6312346 102.137135,53.3920731 C102.089773,53.4079601 102.038549,53.414166 101.933271,53.4375 L101.933271,53.1098306 C101.933271,50.9948733 101.937904,48.8801643 101.927083,46.765207 C101.926064,46.531122 102.005859,46.4253741 102.217961,46.3186333 C103.606144,45.622584 104.464074,44.4898903 104.98223,43.0980399 C105.531274,41.6225345 105.781729,40.0837294 105.966803,38.5357395 C106.261789,36.0717647 106.537212,33.6053075 106.818298,31.1398432 C107.095265,28.7036706 107.366827,26.2670015 107.644567,23.8310772 C107.922307,21.3951528 108.204422,18.9597249 108.483964,16.5238006 C108.547285,15.9729684 108.607261,15.4216397 108.671869,14.84375" id="Fill-10" fill="#E03024" mask="url(#mask-2)"></path>
                    <path d="M97.756257,14.84375 L103.90625,14.84375 C103.839851,15.4183979 103.777342,15.9764145 103.710164,16.5341829 C103.425632,18.8896187 103.14084,21.2448063 102.854752,23.5999939 C102.573332,25.9157132 102.288541,28.2311843 102.008418,30.5471519 C101.729073,32.8529421 101.44895,35.1587323 101.177387,37.4657636 C100.901155,39.812015 100.624404,42.1562806 99.8190504,44.4096946 C98.7838928,47.3065158 97.137393,49.7873068 94.5376975,51.632634 C93.5505239,52.3336299 92.4800915,52.8941288 91.3458534,53.3444145 C91.2618166,53.3774288 91.1733704,53.4007623 91.0602838,53.4375 C91.0530213,53.3280314 91.0426464,53.2436339 91.0426464,53.1587399 C91.0416667,50.9944397 91.0395339,48.8301395 91.0483526,46.6660875 C91.0488714,46.550165 91.1080084,46.3761571 91.1977515,46.3275044 C92.4468918,45.6545582 93.2486137,44.6162204 93.8345373,43.4021371 C94.519282,41.9830174 94.8901854,40.4772661 95.0714871,38.9350254 C95.4711809,35.5335566 95.8327468,32.1281162 96.2096158,28.7241652 C96.6381,24.8565242 97.0673623,20.9888832 97.494809,17.1212422 C97.5669147,16.4701401 97.6320173,15.818045 97.7025668,15.1666947 C97.7139792,15.0602048 97.7373227,14.9549562 97.756257,14.84375" id="Fill-11" fill="#E03024" mask="url(#mask-2)"></path>
                </g>
                <text id="比价格-查历史-找特价" font-family="MicrosoftYaHei, Microsoft YaHei" font-size="19" font-weight="normal" fill="#E03024">
                    <tspan x="0" y="83">比价格  查历史  找特价</tspan>
                </text>
            </g>
        </g>
    </g>
</svg>